# xmcd
#
# Track frame offsets:
#	150
#	18924
#	66172
#	102523
#	134846
#	173326
#	224812
#	291182
#
# Disc length: 4265 seconds
#
# Revision: 0
# Processed by: cddbd v1.5.2PL0 Copyright (c) Steve Scherf et al.
# Submitted via: EasyCDDAExtractor 16.1.0.1
#
DISCID=7c10a708
DTITLE=Santana - 17 suosikkia [CD2)
DYEAR=2008
DGENRE=Blues
TTITLE0=With a Little Help From My Friends
TTITLE1=La puesta del sol
TTITLE2=Hot Tamales
TTITLE3=Everyday I HAve The Blues
TTITLE4=Jam in E
TTITLE5=Latin Tropical
TTITLE6=Santana Jam
TTITLE7=Soul Sacrifice (live)
EXTD=
EXTT0=
EXTT1=
EXTT2=
EXTT3=
EXTT4=
EXTT5=
EXTT6=
EXTT7=
PLAYORDER=
